<svg width="128" height="40" viewBox="0 0 128 40" fill="none" xmlns="http://www.w3.org/2000/svg">
<path d="M16.9925 10.6307C16.8978 9.58901 16.4764 8.77936 15.7283 8.2017C14.9897 7.61458 13.9338 7.32102 12.5607 7.32102C11.6516 7.32102 10.8941 7.43939 10.288 7.67614C9.68194 7.91288 9.22739 8.23958 8.92436 8.65625C8.62133 9.06345 8.46508 9.5322 8.45561 10.0625C8.43667 10.4981 8.5219 10.8816 8.71129 11.2131C8.91016 11.5445 9.19425 11.8381 9.56357 12.0938C9.94235 12.34 10.3969 12.5578 10.9272 12.7472C11.4575 12.9366 12.0541 13.1023 12.717 13.2443L15.217 13.8125C16.6564 14.125 17.9253 14.5417 19.0238 15.0625C20.1317 15.5833 21.0598 16.2036 21.8079 16.9233C22.5655 17.643 23.1384 18.4716 23.5266 19.4091C23.9149 20.3466 24.1138 21.3977 24.1232 22.5625C24.1138 24.3996 23.6497 25.9763 22.7312 27.2926C21.8126 28.6089 20.4916 29.6174 18.7681 30.3182C17.0541 31.0189 14.985 31.3693 12.5607 31.3693C10.127 31.3693 8.0058 31.0047 6.19709 30.2756C4.38838 29.5464 2.98213 28.4384 1.97834 26.9517C0.97455 25.465 0.458452 23.5852 0.430043 21.3125H7.163C7.21982 22.25 7.47076 23.0312 7.91584 23.6562C8.36091 24.2812 8.97171 24.7547 9.74822 25.0767C10.5342 25.3987 11.4433 25.5597 12.4755 25.5597C13.4225 25.5597 14.2274 25.4318 14.8903 25.1761C15.5626 24.9205 16.0787 24.5653 16.4386 24.1108C16.7984 23.6562 16.9831 23.1354 16.9925 22.5483C16.9831 21.9991 16.8126 21.5303 16.4812 21.142C16.1497 20.7443 15.6384 20.4034 14.9471 20.1193C14.2653 19.8258 13.3941 19.5559 12.3335 19.3097L9.29368 18.5994C6.77474 18.0218 4.79084 17.089 3.34197 15.8011C1.89311 14.5038 1.17341 12.7519 1.18288 10.5455C1.17341 8.74621 1.65637 7.16951 2.63175 5.81534C3.60713 4.46117 4.95656 3.4053 6.68004 2.64773C8.40353 1.89015 10.3685 1.51136 12.5749 1.51136C14.8287 1.51136 16.7842 1.89489 18.4414 2.66193C20.1081 3.41951 21.4007 4.48485 22.3192 5.85795C23.2378 7.23106 23.7066 8.82197 23.7255 10.6307H16.9925ZM33.8249 31.3693C32.4329 31.3693 31.1971 31.1373 30.1175 30.6733C29.0475 30.1998 28.1999 29.4896 27.5749 28.5426C26.9594 27.5862 26.6516 26.3883 26.6516 24.9489C26.6516 23.7367 26.8647 22.714 27.2908 21.8807C27.717 21.0473 28.3041 20.3703 29.0522 19.8494C29.8003 19.3286 30.6621 18.9356 31.6374 18.6705C32.6128 18.3958 33.6545 18.2112 34.7624 18.1165C36.003 18.0028 37.002 17.8845 37.7596 17.7614C38.5172 17.6288 39.0664 17.4441 39.4073 17.2074C39.7577 16.9612 39.9329 16.6155 39.9329 16.1705V16.0994C39.9329 15.3703 39.6819 14.8068 39.18 14.4091C38.6781 14.0114 38.0011 13.8125 37.1488 13.8125C36.2302 13.8125 35.4916 14.0114 34.9329 14.4091C34.3742 14.8068 34.0191 15.3561 33.8675 16.0568L27.4613 15.8295C27.6507 14.5038 28.1384 13.3201 28.9244 12.2784C29.7198 11.2273 30.8088 10.4034 32.1914 9.80682C33.5835 9.20076 35.2549 8.89773 37.2056 8.89773C38.5977 8.89773 39.8808 9.06345 41.055 9.39489C42.2293 9.71686 43.252 10.1903 44.1232 10.8153C44.9944 11.4309 45.6668 12.1884 46.1403 13.0881C46.6232 13.9877 46.8647 15.0152 46.8647 16.1705V31H40.3306V27.9602H40.1602C39.7719 28.6989 39.2747 29.3239 38.6687 29.8352C38.0721 30.3466 37.3666 30.7301 36.5522 30.9858C35.7473 31.2415 34.8382 31.3693 33.8249 31.3693ZM35.9698 26.8239C36.7179 26.8239 37.3903 26.6723 37.9869 26.3693C38.5929 26.0663 39.0759 25.6496 39.4357 25.1193C39.7956 24.5795 39.9755 23.9545 39.9755 23.2443V21.1705C39.7766 21.2746 39.5352 21.3693 39.2511 21.4545C38.9764 21.5398 38.6734 21.6203 38.342 21.696C38.0105 21.7718 37.6696 21.8381 37.3192 21.8949C36.9689 21.9517 36.6327 22.0038 36.3107 22.0511C35.6573 22.1553 35.0986 22.3163 34.6346 22.5341C34.18 22.7519 33.8297 23.036 33.5835 23.3864C33.3467 23.7273 33.2283 24.1345 33.2283 24.608C33.2283 25.3277 33.484 25.8769 33.9954 26.2557C34.5162 26.6345 35.1744 26.8239 35.9698 26.8239ZM54.5778 39.1818C53.7444 39.1818 52.9585 39.1155 52.2198 38.983C51.4812 38.8598 50.8467 38.6941 50.3164 38.4858L51.8505 33.4432C52.5323 33.6705 53.1478 33.803 53.6971 33.8409C54.2558 33.8788 54.734 33.7888 55.1317 33.571C55.5389 33.3627 55.8514 32.9886 56.0692 32.4489L56.3391 31.7955L48.5835 9.18182H55.8562L59.8761 24.75H60.1033L64.18 9.18182H71.4954L63.271 33.0881C62.8732 34.2813 62.3098 35.3324 61.5806 36.2415C60.8609 37.16 59.9281 37.8797 58.7823 38.4006C57.646 38.9214 56.2444 39.1818 54.5778 39.1818ZM86.5593 9.18182V14.2955H72.5252V9.18182H86.5593ZM75.4513 31V8.07386C75.4513 6.38826 75.7686 4.99148 76.4031 3.88352C77.0375 2.7661 77.9182 1.93276 79.0451 1.38352C80.172 0.824809 81.4741 0.545453 82.9513 0.545453C83.9173 0.545453 84.8263 0.621211 85.6786 0.772727C86.5404 0.914773 87.1796 1.04261 87.5962 1.15625L86.4883 6.24148C86.2326 6.15625 85.9201 6.08523 85.5508 6.02841C85.1909 5.97159 84.85 5.94318 84.5281 5.94318C83.7137 5.94318 83.1549 6.12311 82.8519 6.48295C82.5489 6.8428 82.3974 7.33523 82.3974 7.96023V31H75.4513ZM99.3967 31.4119C97.1145 31.4119 95.1448 30.9621 93.4876 30.0625C91.8398 29.1534 90.5709 27.8608 89.6808 26.1847C88.8001 24.4991 88.3597 22.4962 88.3597 20.1761C88.3597 17.9223 88.8048 15.9527 89.695 14.267C90.5851 12.572 91.8398 11.2557 93.4592 10.3182C95.0785 9.37121 96.9866 8.89773 99.1836 8.89773C100.737 8.89773 102.157 9.1392 103.445 9.62216C104.733 10.1051 105.846 10.8201 106.783 11.767C107.721 12.714 108.45 13.8835 108.971 15.2756C109.491 16.6581 109.752 18.2443 109.752 20.0341V21.767H90.7887V17.733H103.289C103.279 16.9943 103.104 16.3362 102.763 15.7585C102.422 15.1809 101.953 14.7311 101.357 14.4091C100.77 14.0777 100.093 13.9119 99.3256 13.9119C98.5491 13.9119 97.8531 14.0871 97.2376 14.4375C96.622 14.7784 96.1344 15.2472 95.7745 15.8438C95.4147 16.4309 95.2253 17.0985 95.2063 17.8466V21.9517C95.2063 22.8419 95.3815 23.6231 95.7319 24.2955C96.0823 24.9583 96.5794 25.4744 97.2234 25.8438C97.8673 26.2131 98.6344 26.3977 99.5245 26.3977C100.14 26.3977 100.699 26.3125 101.201 26.142C101.703 25.9716 102.133 25.7206 102.493 25.3892C102.853 25.0578 103.123 24.6506 103.303 24.1676L109.681 24.3523C109.416 25.7822 108.833 27.0275 107.934 28.0881C107.043 29.1392 105.874 29.9583 104.425 30.5455C102.976 31.1231 101.3 31.4119 99.3967 31.4119ZM113.299 31V9.18182H120.047V13.1591H120.274C120.672 11.7197 121.32 10.6496 122.22 9.94886C123.119 9.23864 124.166 8.88352 125.359 8.88352C125.681 8.88352 126.012 8.9072 126.353 8.95455C126.694 8.99242 127.011 9.05398 127.305 9.1392V15.1761C126.974 15.0625 126.538 14.9725 125.998 14.9062C125.468 14.84 124.994 14.8068 124.578 14.8068C123.754 14.8068 123.011 14.9915 122.348 15.3608C121.694 15.7206 121.178 16.2273 120.799 16.8807C120.43 17.5246 120.245 18.2822 120.245 19.1534V31H113.299Z" fill="url(#paint0_linear_2074_7)"/>
<defs>
<linearGradient id="paint0_linear_2074_7" x1="72.9767" y1="-1.88021" x2="67.3504" y2="36.4769" gradientUnits="userSpaceOnUse">
<stop offset="0.0650528" stop-color="#3A6AD6"/>
<stop offset="1" stop-color="#33365B"/>
</linearGradient>
</defs>
</svg>
