<?xml version="1.0" encoding="utf-8" ?><svg xmlns="http://www.w3.org/2000/svg" xmlns:xlink="http://www.w3.org/1999/xlink" width="1024" height="1024" viewBox="0 0 1024 1024"><path fill="#0B0B0A" d="M313.912 391.077C324.958 390.745 385.379 389.973 391.873 392.152C394.579 393.06 396.911 395.993 398.146 398.499C400.459 403.192 401.133 409.997 402.375 415.192L410.342 447.451L433.393 541.21C437.476 557.784 442.067 574.328 445.644 591.013C446.212 593.665 447.724 600.49 446.48 602.97C445.349 605.225 443.164 607.002 440.728 607.65C435.999 608.907 405.25 608.754 399.278 608.102C397.046 607.858 394.407 607.483 392.52 606.189C386.195 601.852 383.716 585.599 382.323 578.287C381.668 576.166 381.069 573.568 379.638 571.83C378.288 570.192 376.702 570.162 374.729 570.052C368.041 569.678 330.069 568.982 325.865 570.924C319.713 573.765 320.907 599.333 313.058 605.638C310.903 607.369 307.489 608.206 304.817 608.609C298.505 609.562 291.569 609.027 285.188 609.015C278.983 609.004 272.525 609.343 266.348 608.856C263.6 608.639 260.933 608.113 259.163 605.81C257.777 604.006 256.692 600.641 257.025 598.386C259.044 584.733 262.88 571.09 266.048 557.66L282.73 487.273C285.398 475.985 301.326 402.713 304.784 396.913C306.783 393.56 310.243 391.915 313.912 391.077ZM354.125 517.929C358.128 517.953 363.538 518.66 367.061 516.625C369.055 513.276 364.01 496.079 362.969 491.973C360.853 483.622 357.047 464.01 353.939 457.071C353.405 455.878 352.625 454.828 351.521 454.099C351.108 453.827 350.895 453.784 350.466 453.647C349.539 455.062 348.692 456.471 348.142 458.079C345.95 464.489 334.752 510.536 335.666 514.803C335.893 515.862 336.168 516.277 337.088 516.833C340.968 519.175 349.564 517.852 354.125 517.929Z"/><path fill="#0B0B0A" d="M124.912 391.137C136.342 390.545 148.029 391 159.492 390.994C178.829 390.983 201.084 389.202 219.745 393.81C231.531 396.721 242.213 402.046 251.369 410.046C265.612 422.489 271.798 439.722 273.023 458.245C274.548 481.295 270.897 505.428 255.017 523.226C239.92 540.147 218.752 545.893 196.875 547.188C190.822 547.516 178.872 545.77 173.717 547.68C172.349 548.187 171.647 549.133 171.385 550.58C170.829 553.663 171.673 557.38 171.7 560.56C171.761 567.689 171.189 574.734 171.012 581.847C170.895 586.521 171.284 591.334 170.881 595.984C170.702 598.045 170.335 600.349 169.423 602.225C167.964 605.222 164.524 607.027 161.452 607.887C154.738 609.767 123.533 610.107 118.059 606.878C115.026 605.089 113.386 601.756 112.632 598.432C110.982 591.161 112.016 582.236 112.017 574.722L112.016 531.284L111.969 447.768C111.954 433.066 111.366 418.096 112.062 403.427C112.178 400.983 112.389 398.795 113.809 396.722C116.446 392.869 120.643 391.994 124.912 391.137ZM199.655 490.996C204.612 489.431 207.34 487.415 209.786 482.711C213.76 475.069 214.917 464.336 212.187 456.124C210.864 452.146 208.49 448.801 204.673 446.922C197.96 443.617 189.641 444.069 182.356 444.233C180.359 444.287 172.335 443.93 171.224 445.43C169.399 447.896 169.931 485.932 170.92 489.921C171.039 490.4 171.125 490.59 171.303 491.085C175.89 493.483 194.35 492.269 199.655 490.996Z"/><path fill="#0B0B0A" d="M680.435 388.208C693.575 387.528 707.297 388.835 719.597 393.702C740.478 401.962 755.946 418.4 764.696 438.89C767.851 446.278 773.669 459.77 770.214 467.581C769.27 469.713 768.017 470.993 765.822 471.763C758.298 474.403 749.364 474.843 741.505 476.054C735.819 476.93 729.846 478.369 724.095 478.525C722.11 478.578 719.461 478.592 717.677 477.595C714.192 475.645 712.549 467.53 711.274 463.945C708.778 456.931 704.99 450.764 697.971 447.548C690.453 444.103 681.425 444.065 673.734 447.047C665.216 450.351 659.472 457.183 655.891 465.386C647.773 483.987 647.647 513.739 655.175 532.564C658.707 541.396 664.289 548.8 673.289 552.537C681.075 555.77 691.837 556.243 699.606 552.77C709.862 548.187 711.857 538.756 715.709 529.433C717.304 525.571 718.541 523.618 722.462 522.018L723.068 521.778C735.435 523.527 747.834 525.179 760.175 527.094C763.206 527.448 766.586 527.708 769.131 529.562C771.26 531.113 772.262 533.36 772.553 535.929C774.042 549.044 762.657 572.717 754.305 582.838C739.759 600.467 719.659 609.6 697.16 611.734C671.024 614.213 643.234 607.996 622.807 590.953C601.125 572.863 591.938 546.708 589.474 519.293C586.431 485.435 592.315 445.813 614.707 419.104C631.548 399.017 654.891 390.397 680.435 388.208Z"/><path fill="#0B0B0A" d="M794.891 391.082C801.721 390.673 808.678 390.928 815.523 390.938L851.937 390.973L883.794 390.966C889.416 390.975 895.315 390.669 900.905 391.157C903.249 391.362 905.575 391.986 907.57 393.264C909.877 394.74 911.505 396.843 912.017 399.557C912.614 402.716 913.3 434.163 912.899 437.438C912.618 439.738 911.926 442.105 910.572 444.011C909.124 446.048 907.114 447.171 904.706 447.698C898.283 449.106 889.893 448.109 883.252 448.065C875.002 448.01 866.744 448.204 858.499 448.035C854.493 447.953 848.909 447.132 845.034 448.144C844.078 448.394 843.884 448.426 843.454 449.308C841.637 453.03 841.633 467.27 842.942 471.25C844.055 472.176 844.915 472.286 846.357 472.37C863.191 473.343 880.788 470.53 897.494 473.312C898.78 474.354 900.166 475.448 901.063 476.859C902.181 478.618 902.697 480.698 902.965 482.744C903.323 485.477 903.34 516.529 902.833 518.833C902.162 521.886 900.625 523.846 897.793 525.209C887.105 530.351 849.562 523.947 843.741 528.327C842.364 529.363 842.103 532.59 841.999 534.182C841.73 538.293 840.891 546.922 843.694 550.124C845.164 550.926 846.255 550.964 847.875 551.01L885.318 550.962C891.826 550.955 898.997 550.358 905.402 551.402C908.347 551.908 910.946 553.622 912.57 556.13C915.063 559.901 915.272 593.815 914.101 598.748C913.091 603.002 910.926 605.144 907.323 607.407C891.68 609.031 870.396 607.996 854.143 608.003L817.154 608.006C810.382 608.005 803.493 608.268 796.737 607.85C794.427 607.706 792.346 607.519 790.29 606.373C787.501 604.817 785.299 602.252 784.452 599.152C782.79 593.061 783.927 584.887 783.862 578.472L783.807 507.307L783.523 439.329C783.452 428.067 782.911 416.69 783.326 405.44C783.437 402.437 783.642 400.245 785.179 397.579C787.285 393.925 790.923 392.035 794.891 391.082Z"/><path fill="#0B0B0A" d="M419.368 391.08C427.312 390.84 472.054 390.064 476.426 392.037C484.308 395.592 486.585 407.79 489.217 415.203C493.036 425.708 496.911 436.192 500.841 446.656C503.019 452.487 504.893 458.892 507.776 464.4C508.589 465.954 509.357 467.283 510.989 468.057C512.091 467.717 512.663 467.396 513.267 466.36C516.823 460.262 518.92 452.336 521.314 445.654L532.891 413.917C534.712 408.936 536.308 403.367 539.014 398.808C540.423 396.435 542.358 394.124 544.897 392.915C546.802 392.008 548.965 391.851 551.041 391.717C561.064 391.071 571.202 391.866 581.233 392.002C586.129 392.068 591.094 391.474 595.975 391.791C597.491 391.89 599.044 392.139 600.452 392.731C602.326 393.518 603.579 394.923 604.241 396.836C604.874 398.663 604.849 400.531 604.246 402.353C601.411 410.918 596.083 419.415 592.207 427.63L560.618 494.432C557.02 501.817 553.461 509.22 549.939 516.642C547.096 522.599 543.645 528.827 542.002 535.236C540.509 541.061 541.243 547.81 541.313 553.798C541.412 562.345 541.218 570.888 541.247 579.435C541.268 585.459 541.753 591.935 540.992 597.916C540.552 601.373 539.378 604.405 536.44 606.493C534.896 607.591 533.115 608.242 531.252 608.536C524.232 609.643 496.485 609.708 489.066 608.532C486.031 608.079 483.317 606.394 481.563 603.877C475.52 595.317 481.216 548.596 478.634 534.572C477.233 526.962 467.768 510.239 463.993 502.528L431.187 434.322C426.507 424.561 419.664 412.62 416.045 402.804C415.267 400.695 414.69 398.209 415.219 395.969C415.786 393.571 417.381 392.337 419.368 391.08Z"/><path fill="#0B0B0A" d="M774.1 690.958C776.69 691.106 778.694 691.78 781.082 692.742C782.386 694.271 783.533 695.794 784.219 697.707C786.212 703.262 786.824 709.786 787.884 715.608C790.138 727.999 792.216 740.447 794.941 752.744C799.194 753.711 803.731 754.131 808.053 754.826C822.212 757.102 836.59 758.763 850.669 761.421C854.053 762.06 856.874 762.526 858.86 765.658C860.209 767.787 860.766 770.543 860.075 772.994C859.604 774.665 858.659 775.915 857.334 777.015C852.072 781.385 845.289 784.571 839.378 788.015C828.352 794.499 817.288 800.915 806.185 807.265C807.427 820.953 810.432 834.887 812.576 848.476C813.337 853.297 814.498 858.392 814.643 863.268C814.712 865.586 814.473 868.092 813.42 870.194C812.671 871.689 811.556 872.763 809.91 873.202C807.272 873.906 804.289 872.948 802.002 871.634C798.039 869.358 794.61 865.773 791.226 862.724L770.962 844.501C767.065 841.005 763.122 836.833 758.66 834.108C757.175 834.005 755.722 834.915 754.398 835.515C744.279 840.115 734.234 844.875 724.265 849.792C718.305 852.73 711.977 856.589 705.689 858.619C703.304 859.389 700.396 859.791 697.992 858.878C696.684 858.38 695.727 857.425 695.193 856.135C694.209 853.758 694.591 850.749 695.227 848.337C696.921 841.902 700.616 835.279 703.313 829.15C708.143 818.07 712.905 806.959 717.596 795.819C704.756 783.329 691.929 770.659 679.491 757.77C676.843 755.026 674.378 752.339 674.607 748.244C674.735 745.953 675.717 743.873 677.456 742.37C678.826 741.186 680.527 740.561 682.32 740.444C689.168 739.996 696.81 741.67 703.623 742.541C715.875 744.182 728.146 745.68 740.433 747.035C747.049 735.568 752.941 723.563 759.071 711.83C762.02 706.186 764.824 699.527 768.855 694.557C770.332 692.736 771.975 691.864 774.1 690.958Z"/><path fill="#F9F0DC" d="M773.819 695.917C775.177 695.916 776.914 695.842 778.075 696.673C779.15 697.441 779.665 698.594 780.054 699.804C781.929 705.627 782.502 712.214 783.633 718.25L791.001 756.71L830.319 762.78C836.93 763.799 843.854 764.439 850.336 766.047C851.889 766.432 853.625 766.808 854.723 768.071C855.496 768.96 855.855 770.205 855.586 771.362C855.23 772.901 854.016 773.841 852.806 774.715C848.027 778.167 842.401 780.904 837.295 783.877C825.201 790.92 812.936 797.785 801.056 805.182C802.599 813.27 811.423 863.479 809.745 866.485C809.16 867.531 808.012 868.278 806.816 868.411C805.599 868.547 804.728 868.031 803.763 867.37C798.359 863.668 793.396 858.422 788.478 854.035C778.78 845.363 769.031 836.746 759.234 828.186L755.231 829.953C744.338 835.029 733.49 840.202 722.689 845.47C716.817 848.36 710.69 852.013 704.525 854.156C702.88 854.728 702.143 854.868 700.497 854.311C700.011 853.807 699.404 853.232 699.252 852.514C698.657 849.709 719.868 802.362 723.007 794.756L695.484 767.16C690.669 762.348 685.125 757.546 680.887 752.232C680.094 751.237 679.441 750.269 679.426 748.937C679.41 747.612 679.964 746.536 680.97 745.712C681.871 744.975 683.083 744.907 684.208 744.913C690.764 744.944 697.682 746.359 704.201 747.177L743.23 752.075C748.205 743.11 769.551 699.809 773.819 695.917Z"/><path fill="#0B0B0A" d="M262.409 124.995C264.302 124.894 266.959 124.62 268.666 125.639C270.401 126.674 271.278 128.163 272.107 129.948C275.079 136.355 276.746 143.805 278.765 150.575C281.843 160.898 285.108 171.188 287.963 181.574C299.11 182.364 310.286 183.738 321.411 184.844C327.981 185.497 335.189 185.62 341.582 187.151C343.26 187.553 344.753 188.062 345.974 189.333C347.495 190.916 348.69 193.666 348.493 195.876C348.279 198.276 346.194 200.732 344.522 202.293C341.612 205.009 337.872 207.203 334.581 209.432C325.725 215.432 311.563 223.798 304.093 230.366C303.958 230.484 303.827 230.606 303.694 230.726C306.134 242.645 309.11 254.495 311.736 266.379C312.934 271.802 314.674 277.686 315.022 283.228C315.103 284.518 314.741 285.747 314.071 286.846C313.063 288.499 311.301 289.632 309.426 290.054C307.497 290.488 305.759 290.1 304.004 289.255C298.63 286.669 293.54 282.442 288.671 279.018C279.83 272.757 270.955 266.543 262.047 260.376C261.742 260.181 260.855 259.769 260.513 259.798C258.573 259.959 254.934 262.653 253.226 263.656L229.461 277.793C225.083 280.396 220.63 283.481 215.899 285.353C213.998 286.106 211.43 286.844 209.386 286.214C207.873 285.748 206.811 284.93 206.099 283.493C205.096 281.47 205.146 278.998 205.479 276.82C206.328 271.267 208.794 265.494 210.49 260.114C213.714 249.722 217.001 239.35 220.349 228.998C211.579 221.696 202.857 214.335 194.184 206.917C189.619 203.003 184.183 199.059 180.463 194.329C179.578 193.205 178.981 191.903 178.811 190.475C178.557 188.33 179.317 186.189 180.746 184.589C181.981 183.194 183.657 182.265 185.495 181.958C190.225 181.162 195.714 181.69 200.51 181.702C212.16 181.732 223.93 182.086 235.566 181.462C241.264 169.342 246.112 156.714 251.37 144.39C253.626 139.105 255.662 133.073 258.812 128.261C259.766 126.803 260.957 125.919 262.409 124.995Z"/><path fill="#F9F0DC" d="M263.61 129.239C264.653 129.323 265.345 129.341 266.298 129.823C267.259 130.31 267.73 131.335 268.128 132.292C270.609 138.253 272.181 144.921 274.044 151.112L284.513 185.863C295.041 186.568 305.585 187.932 316.098 188.903C323.296 189.568 331.334 189.625 338.359 191.208C340.22 191.627 341.534 192.197 343.009 193.394C343.359 194.131 343.747 194.554 343.603 195.402C343.325 197.028 342.129 198.322 340.934 199.388C337.276 202.652 332.47 205.287 328.394 208.045C318.46 214.77 308.369 221.353 298.65 228.383C300.203 235.569 311.272 279.874 310.344 283.124C309.963 284.458 309.232 284.982 308.138 285.743C305.02 285.762 268.097 259.023 262.148 254.895L261.266 254.393C257.096 254.683 224.376 275.839 217.086 279.859C215.164 280.919 213.014 282.302 210.814 281.659C210.485 281.213 210.184 280.868 210.013 280.312C209.602 278.977 209.977 277.166 210.294 275.848C211.39 271.285 213.432 266.637 214.833 262.115C218.285 250.59 221.891 239.111 225.649 227.682C218.414 221.093 186.296 195.984 183.568 190.335C183.604 189.055 183.817 188.342 184.729 187.389C185.527 186.556 186.434 186.269 187.538 186.117C192.956 185.374 199.034 185.926 204.537 185.935L238.572 186C244.636 173.426 249.751 160.266 255.186 147.405C257.653 141.568 259.901 134.333 263.61 129.239Z"/><path fill="#0B0B0A" d="M241.587 666.974C243.07 666.943 244.569 667.105 245.991 667.548C247.98 668.168 249.048 669.631 250.129 671.313C252.901 675.625 254.848 680.697 256.989 685.355C262 696.262 266.678 707.588 272.399 718.126C287.718 717.342 303.171 715.146 318.496 715.032C321.721 715.008 324.736 715.074 327.091 717.566C328.629 719.177 329.418 721.36 329.265 723.582C329.132 725.323 328.407 726.721 327.328 728.066C324.299 731.844 320.104 735.078 316.578 738.415C308.359 746.193 300.171 754.069 291.668 761.536C292.515 764.026 293.48 766.471 294.414 768.929L303.589 793.478C305.419 798.409 307.912 803.786 308.744 808.983C309.008 810.631 308.924 812.185 308.168 813.699C307.234 815.569 305.45 816.944 303.431 817.456C302.011 817.816 300.675 817.739 299.282 817.302C293.458 815.479 287.755 811.653 282.433 808.663L259.201 795.641L256 793.9C251.018 798.369 245.652 802.51 240.519 806.811C234.467 811.882 228.557 817.163 222.403 822.105C219.615 824.344 215.891 826.934 212.112 826.328C210.701 826.101 209.523 825.319 208.695 824.173C207.363 822.334 207.029 819.768 207.027 817.561C207.021 811.818 208.518 805.678 209.433 799.989C210.975 790.39 212.398 780.743 214.181 771.187C201.149 762.736 187.722 754.662 174.951 745.843C172.374 744.063 169.434 742.001 168.947 738.692C168.628 736.522 169.092 734.241 170.454 732.492C171.326 731.372 172.43 730.765 173.77 730.359C179.653 728.576 186.339 728.308 192.433 727.55L222.165 723.891C227.344 708.095 229.923 691.403 234.901 675.555C236.372 670.872 237.117 669.284 241.587 666.974Z"/><path fill="#F9F0DC" d="M242.364 671.218C242.911 671.339 243.453 671.464 243.985 671.643C245.335 672.096 246.004 673.102 246.699 674.273C249.737 679.389 252.022 685.318 254.533 690.72L269.378 722.574L303.124 720.476C308.441 720.143 314.345 719.249 319.642 719.705C321.196 719.839 322.985 720.146 324.144 721.266C324.765 721.867 324.606 722.366 324.672 723.17C324.086 724.664 323.369 725.729 322.301 726.93C319.079 730.551 314.996 733.735 311.442 737.056C303.126 744.768 294.885 752.56 286.719 760.43C289.231 767.871 304.923 807.003 304.115 811.257C303.38 812.361 302.984 812.756 301.762 813.28C298.014 813.01 263.729 793.005 258.321 790.024C257.769 789.761 256.552 789.251 256.014 789.208C251.581 788.854 221.993 819.717 214.567 821.564C213.273 821.886 212.787 821.658 211.712 820.961C211.196 819.805 211.079 818.903 211.168 817.659C211.518 812.715 212.867 807.429 213.658 802.508L219.071 769.204C212.057 764.307 176.225 742.562 173.52 738.345C173.456 736.881 173.557 736.718 174.305 735.445C178.494 732.627 217.632 728.841 225.729 727.83C229.818 715.545 232.591 702.442 235.772 689.868C237.076 684.713 238.093 678.806 240.164 673.915C240.666 672.728 241.407 672.05 242.364 671.218Z"/><path fill="#0B0B0A" d="M793.089 170.049C795.178 169.945 797.337 169.801 799.195 170.943C800.894 171.987 801.858 173.963 802.583 175.746C804.349 180.093 805.176 184.897 806.24 189.457C808.371 198.586 810.23 207.881 812.771 216.898L841.009 218.481C845.961 218.767 851.186 218.721 856.055 219.597C858.348 220.01 860.159 220.966 861.423 222.98C862.467 224.61 862.803 226.593 862.354 228.476C862.041 229.712 861.386 230.836 860.464 231.717C856.537 235.537 851.429 238.444 846.876 241.492L825.124 256.023L825.346 256.947C827.468 265.9 829.121 274.989 830.899 284.016C831.857 288.883 833.336 294.137 833.569 299.074C833.666 301.124 833.605 304.019 832.287 305.735C831.401 306.889 830.523 307.312 829.084 307.448C826.846 307.659 824.317 306.547 822.449 305.428C818.852 303.274 815.56 300.188 812.243 297.611C805.033 292.095 797.889 286.494 790.813 280.808C789.97 280.18 789.446 279.662 788.312 279.77C786.504 279.942 783.071 282.509 781.522 283.462C773.66 288.305 759.855 298.086 751.949 301.258C750.045 302.021 747.311 302.756 745.27 302.127C744.033 301.746 743.15 301.156 742.59 299.957C741.66 297.961 741.889 295.34 742.275 293.241C743.154 288.475 745.175 283.646 746.697 279.033C749.704 269.869 752.757 260.721 755.857 251.588C747.761 243.108 734.662 233.667 727.886 225.331C726.313 223.397 724.965 221.072 724.649 218.559C724.469 217.122 724.642 215.617 725.709 214.536C729.708 210.481 762.956 213.628 770.028 213.88C772.6 206.539 776.554 199.27 779.875 192.236C782.799 186.042 785.488 178.95 789.34 173.277C790.311 171.849 791.656 170.965 793.089 170.049Z"/><path fill="#F9F0DC" d="M794.022 174.312C794.92 174.38 795.792 174.529 796.682 174.666C797.556 175.287 797.982 175.818 798.363 176.802C800.058 181.173 800.876 186.23 801.977 190.798C804.399 200.845 806.658 210.958 809.402 220.921C819.16 221.888 829.046 222.313 838.837 222.864C843.46 223.124 848.444 223.03 852.975 223.858C854.45 224.128 856.283 224.521 857.288 225.724C857.791 226.325 857.557 226.803 857.506 227.526C854.615 232.2 827.33 249.3 820.739 254.098C821.969 261.856 829.948 296.477 829.006 300.848C828.758 301.993 828.527 302.047 827.589 302.625C826.218 302.444 825.273 302.052 824.119 301.278C819.948 298.481 816.005 294.8 812.063 291.665C804.672 285.813 797.243 280.011 789.775 274.258C785.703 272.874 754.223 298.199 748.135 297.306C747.289 297.182 747.167 296.723 746.662 296.109C746.405 294.642 746.54 293.526 746.902 292.081C747.906 288.08 749.809 284.045 751.12 280.089L760.989 249.887C754.782 244.175 748.544 238.498 742.274 232.855C738.653 229.643 734.508 226.54 731.286 222.93C730.434 221.976 729.59 220.907 729.508 219.582C729.46 218.799 729.966 218.491 730.426 217.921C735.597 215.758 764.923 218.007 772.378 218.415C777.278 208.896 781.66 199.068 786.233 189.388C788.578 184.425 790.761 178.728 794.022 174.312Z"/></svg>